<svg xmlns="http://www.w3.org/2000/svg" version="1.1" xmlns:xlink="http://www.w3.org/1999/xlink" xmlns:svgjs="http://svgjs.dev/svgjs" viewBox="0 0 1920 1080"><rect width="1920" height="1080" fill="#ebcccc"></rect><g transform="matrix(-2.112515728529184e-16,-1.15,1.15,-2.112515728529184e-16,313.9780883789065,1615.2248016357423)"><path d="M0,-1080C9.330395493677841,-975.0947530292492,47.33580846810046,-660.9781588644717,55.982372962067046,-450.5685181754955C64.62893745603364,-240.1588774865194,65.13277488729904,-43.64852333954511,51.87938696379953,182.45784413385684C38.62599904030002,408.5642116072588,-6.669105270595665,688.3663769256199,-23.537954578929998,906.0696866649162C-40.40680388726433,1123.7729964042123,-53.256701316028135,1279.6893170137869,-49.333708886206466,1488.6777025696342C-45.4107164563848,1697.6660881254816,-8.222284814367745,2048.1129504282726,0,2160L 1920 2160 L 1920 -1080 Z" fill="url(&quot;#SvgjsLinearGradient1285&quot;)"></path><path d="M320,-1080C312.2715347444479,-988.5116501380903,274.1337320277223,-707.5931766460805,273.6292084666873,-531.0699008285422C273.1246849056523,-354.54662501100404,314.544120539845,-191.61288673818257,316.9728586337901,-20.86034509477078C319.40159672773524,149.89219654864098,279.3730736992168,311.366664514954,288.20163703035803,493.44534903192834C297.0302003614993,675.5240335489027,369.8175600251557,883.6271800171679,369.9442386206376,1071.6117620070752C370.0709172161195,1259.5963439969823,297.2857483733558,1439.9548013058845,288.9617086032495,1621.352840971372C280.63766883314327,1802.7508806368594,314.8269514338749,2070.2254734952285,320,2160L 1920 2160 L 1920 -1080 Z" fill="url(&quot;#SvgjsLinearGradient1286&quot;)"></path><path d="M640,-1080C648.6325073871611,-938.7186739158468,701.2084449126448,-500.4151974817444,691.7950443229665,-232.3120434950809C682.3816437332882,35.79111049158263,587.5856261636604,265.8948472513747,583.5195964619301,528.6189239199811C579.4535667601997,791.3430005885874,657.9854655229063,1072.1355705032208,667.3988661125846,1344.0324165165573C676.812266702263,1615.9292625298938,644.5664776854308,2024.0054027527594,640,2160L 1920 2160 L 1920 -1080 Z" fill="url(&quot;#SvgjsLinearGradient1287&quot;)"></path><path d="M960,-1080C963.7788246355266,-987.2984479429948,976.7492984863318,-697.3229255458477,982.6729478131595,-523.7906876579689C988.5965971399871,-350.25844977009,997.1259980514735,-221.22053899902807,995.5418959609663,-38.80657267272655C993.957793870459,143.60739365357495,980.1592615475638,378.8560073757926,973.168335270116,570.6931102998401C966.1774089926682,762.5302132238876,955.6388561563793,927.883642522275,953.5963382962792,1112.2160448715586C951.5538204361791,1296.548447220842,959.8459511588953,1502.0568652074678,960.9132281095154,1676.6875243955415C961.9805050601356,1851.318183583615,960.1522046849193,2079.4479207325903,960,2160L 1920 2160 L 1920 -1080 Z" fill="url(&quot;#SvgjsLinearGradient1288&quot;)"></path><path d="M1280,-1080C1284.9182625989902,-992.4330402507352,1311.9779837574367,-735.4650764135843,1309.5095755939406,-554.598241504411C1307.0411674304444,-373.7314065952378,1266.9723670171804,-178.2553962684816,1265.1895510190227,5.201009455039433C1263.406735020865,188.65741517856048,1302.9884531561306,376.40473989569864,1298.8126796049944,546.1401928367152C1294.6369060538582,715.8756457777317,1234.2832967818213,835.7877069385685,1240.1349097122059,1023.6137271011389C1245.9865226425904,1211.4397472637093,1327.2781754726695,1483.6986016623275,1333.922357187302,1673.0963138121376C1340.5665389019343,1862.4940259619477,1288.987059531217,2078.849385635356,1280,2160L 1920 2160 L 1920 -1080 Z" fill="url(&quot;#SvgjsLinearGradient1289&quot;)"></path><path d="M1600,-1080C1597.2007672958432,-1009.7355282062728,1587.5363085267234,-793.8639888029105,1583.204603775059,-658.4131692376366C1578.8728990233947,-522.9623496723626,1571.9957478966492,-391.0480042738075,1574.0097714900137,-267.2950826083563C1576.0237950833782,-143.54216094290513,1582.1172822267506,-45.963338812373024,1595.288745335246,84.10436075507067C1608.4602084437413,214.17206032251437,1645.2954251506837,364.1934925216592,1653.0385501409862,513.1111147963059C1660.7816751312887,662.0287370709525,1656.7339871229183,830.07661746858,1641.7474952770608,977.6100944029505C1626.7610034312033,1125.143571337321,1569.5024186643,1265.790493853517,1563.119599065842,1398.3119764025287C1556.7367794673842,1530.8334589515403,1597.3038441972874,1645.7909857641075,1603.4505776863136,1772.7389896970194C1609.5973111753399,1899.6869936299313,1600.5750962810523,2095.4564982828365,1600,2160L 1920 2160 L 1920 -1080 Z" fill="url(&quot;#SvgjsLinearGradient1290&quot;)"></path></g><defs><linearGradient x1="0.1" y1="0" x2="0" y2="1" id="SvgjsLinearGradient1285"><stop stop-color="#ebcccc" offset="0"></stop><stop stop-color="#ebccd1" offset="0"></stop></linearGradient><linearGradient x1="0.1" y1="0" x2="0" y2="1" id="SvgjsLinearGradient1286"><stop stop-color="#efd6d6" offset="0"></stop><stop stop-color="#efd6da" offset="0.16666666666666666"></stop></linearGradient><linearGradient x1="0.1" y1="0" x2="0" y2="1" id="SvgjsLinearGradient1287"><stop stop-color="#f3e0e0" offset="0"></stop><stop stop-color="#f3e0e3" offset="0.3333333333333333"></stop></linearGradient><linearGradient x1="0.1" y1="0" x2="0" y2="1" id="SvgjsLinearGradient1288"><stop stop-color="#f7eaea" offset="0"></stop><stop stop-color="#f7eaec" offset="0.5"></stop></linearGradient><linearGradient x1="0.1" y1="0" x2="0" y2="1" id="SvgjsLinearGradient1289"><stop stop-color="#fbf4f4" offset="0"></stop><stop stop-color="#fbf4f5" offset="0.6666666666666666"></stop></linearGradient><linearGradient x1="0.1" y1="0" x2="0" y2="1" id="SvgjsLinearGradient1290"><stop stop-color="#fffefe" offset="0"></stop><stop stop-color="#fffefe" offset="0.8333333333333334"></stop></linearGradient></defs></svg>